<svg width="325" height="370" viewBox="0 0 325 370" fill="none" xmlns="http://www.w3.org/2000/svg">
<path d="M310.66 2H14.3403C7.71292 2 2.34033 7.37257 2.34033 14V310.319C2.34033 316.947 7.7129 322.319 14.3403 322.319H310.659C317.287 322.319 322.659 316.947 322.659 310.319V14C322.659 7.37258 317.287 2 310.66 2Z" stroke="black" stroke-width="4" stroke-miterlimit="10"/>
<path d="M108.263 192.33C109.647 192.419 116.124 192.867 125.595 193.535C129.188 187.645 133.573 177.132 132.59 161.919C132.411 159.399 137.679 174.065 134.398 194.154C152.698 195.429 177.596 197.155 199.353 198.454C200.162 189.97 201.297 182.148 201.297 182.148C201.764 188.31 202.821 193.897 204.085 198.757C207.059 198.959 209.979 199.099 212.774 199.258C212.739 186.032 216.04 163.139 216.04 163.139C217.281 179.224 221.806 192.233 225.146 199.927C238.967 200.607 248.073 200.802 247.517 200.121C227.7 175.188 243.645 162.078 238.664 140.691C232.685 115.061 211.052 110.042 212.568 91.0688C213.762 75.6298 216.97 47.66 197.713 40.7706C197.713 40.7706 182.62 22.6412 157.228 31.0819C125.817 41.4938 135.856 89.7391 133.305 99.3423C129.678 113.063 122.858 117.643 117.209 133.218C111.451 148.98 118.251 159.928 118.581 170.81C118.873 181.693 104.795 192.14 108.263 192.33Z" fill="black"/>
<path d="M248.294 196.731C245.701 192.322 243.423 187.695 242.202 182.886C240.837 178.1 241.743 173.302 242.925 168.368C244.099 163.458 245.464 158.443 246.168 153.206C246.809 147.988 246.871 142.471 245.371 137.214C243.963 131.95 241.187 127.102 237.673 123.117C234.201 119.069 230.157 115.757 226.261 112.491C222.405 109.19 218.556 105.924 215.741 101.819C212.856 97.7714 211.215 92.8687 210.83 87.7444C210.391 92.8531 211.511 98.2146 214.154 102.81C216.759 107.437 220.511 111.231 224.232 114.754C227.953 118.3 231.705 121.686 234.799 125.512C237.871 129.334 240.274 133.603 241.452 138.264C242.645 142.91 242.82 147.821 242.241 152.739C241.732 157.673 240.581 162.607 239.679 167.708C239.251 170.262 238.855 172.867 238.82 175.561C238.769 178.259 239.325 181.024 240.208 183.496C242.089 188.45 244.92 192.855 248.294 196.731Z" fill="black"/>
<path d="M138.962 48.0251C136.291 53.7754 135.109 60.0894 133.919 66.2829C132.846 72.5191 132.08 78.7943 131.384 85.0461L130.284 94.3771C129.911 97.4952 129.382 100.415 128.464 103.261C126.668 108.98 123.196 113.883 119.301 118.852C117.407 121.375 115.487 124.007 113.881 126.88C112.271 129.746 110.949 132.802 110.02 135.959C109.18 139.158 108.574 142.304 108.224 145.542C107.858 148.773 107.882 152.097 108.309 155.336C108.725 158.586 109.495 161.673 110.117 164.698C110.751 167.715 111.105 170.794 111.148 173.835C111.334 179.873 107.878 185.732 102.827 189.449C108.375 186.49 112.613 180.584 113.103 173.916C113.34 170.674 113.154 167.451 112.734 164.267C112.33 161.086 111.676 158.03 111.47 155.009C110.988 149.022 112.03 142.848 113.729 137.074C114.674 134.225 115.844 131.472 117.353 128.871C118.842 126.258 120.665 123.813 122.57 121.324C124.444 118.821 126.4 116.247 128.091 113.432C129.779 110.621 131.225 107.592 132.166 104.412C133.091 101.235 133.573 97.9229 133.849 94.7814C134.172 91.6167 134.37 88.4674 134.568 85.326C134.988 79.047 135.319 72.7796 135.906 66.5434C136.427 60.2994 137.177 54.0709 138.962 48.0251Z" fill="black"/>
<path d="M139.538 151.207C100.627 194.985 53.5094 285.263 64.0652 302.518C75.8262 321.736 131.964 259.397 130.032 256.574C128.391 254.175 146.641 200.172 159.895 160.682C173.133 121.227 149.16 140.379 139.538 151.207Z" fill="#D3766A"/>
<path d="M139.538 151.207C100.627 194.985 53.5094 285.263 64.0652 302.518C75.8262 321.736 131.964 259.397 130.032 256.574C128.391 254.175 146.641 200.172 159.895 160.682C173.133 121.227 149.16 140.379 139.538 151.207Z" fill="black" stroke="white" stroke-width="2" stroke-miterlimit="10"/>
<path d="M144.775 205.984C140.98 217.504 137.497 228.309 134.853 236.944C128.838 237.212 111.249 236.24 92.9719 218.678C98.4656 208.935 104.414 199.149 110.545 189.803C115.141 194.643 126.292 204.079 144.775 205.984Z" fill="black" stroke="white" stroke-width="1.25833" stroke-miterlimit="10"/>
<path d="M245.679 321.479H103.154L112.759 256.409L112.81 256.067L112.638 255.766L112.638 255.766L112.637 255.766L112.636 255.763L112.628 255.75L112.597 255.695C112.57 255.645 112.528 255.57 112.473 255.47C112.363 255.271 112.203 254.974 112.001 254.587C111.597 253.813 111.028 252.683 110.372 251.264C109.06 248.424 107.405 244.438 106.031 239.849C103.271 230.625 101.713 219.18 106.099 209.705L106.099 209.704C108.351 204.825 117.314 190.259 127.869 175.334C133.137 167.885 138.784 160.372 144.164 153.96C149.557 147.532 154.636 142.268 158.768 139.268C166.395 133.733 175.468 133.456 183.622 135.84C191.8 138.23 198.897 143.256 202.452 148.073C212.979 162.341 220.858 182.387 227.588 210.706C234.262 238.791 239.788 274.925 245.679 321.479Z" fill="white" stroke="black" stroke-width="2"/>
<path d="M130.502 168.991C127.287 173.403 124.165 177.878 121.097 182.396C121.933 180.639 122.777 178.885 123.601 177.124C123.659 176.996 123.473 176.891 123.41 177.019C122.267 179.227 121.218 181.467 120.195 183.718C116.093 189.791 112.112 195.946 108.271 202.182C106.642 204.83 105.145 207.524 104.045 210.44C102.979 213.262 102.318 216.233 101.968 219.223C101.619 222.22 101.591 225.233 101.825 228.239C102.062 231.337 102.439 234.405 103.131 237.434C103.916 240.851 104.985 244.253 106.37 247.48C107.05 249.063 107.777 250.637 108.559 252.177C109.274 253.58 110.728 256.446 110.709 256.555C110.417 258.141 110.118 259.253 109.915 260.586C109.709 261.943 109.507 263.304 109.301 264.661C108.893 267.379 105.363 293.824 104.966 296.546C104.177 301.946 103.496 307.35 102.824 312.766C102.435 315.873 102.233 319.007 101.797 322.109C101.778 322.234 101.968 322.284 101.992 322.156C102.439 319.454 103.108 316.79 103.597 314.1C104.087 311.406 104.589 308.707 105.094 306.013C106.117 300.57 110.048 271.348 110.899 265.874C111.136 264.362 111.369 262.845 111.607 261.333C111.84 259.828 112.244 257.807 112.186 256.282C112.186 256.282 107.338 246.318 105.452 239.335C104.663 236.403 103.854 233.351 103.524 230.331C103.201 227.356 103.17 224.363 103.415 221.384C103.66 218.406 104.22 215.447 105.133 212.602C106.074 209.662 107.427 206.929 108.94 204.242C112.104 198.617 115.471 193.096 118.881 187.614C122.749 181.401 126.665 175.211 130.665 169.084C130.735 168.979 130.572 168.897 130.502 168.991Z" fill="black"/>
<path d="M64.065 302.518C73.9987 315.263 99.3014 316.472 162.717 325.503C171.493 326.752 196.974 267.192 187.67 265.377C175.952 263.09 129.985 256.753 126.564 256.71C97.719 256.384 57.3272 293.871 64.065 302.518Z" fill="black"/>
<path d="M174.964 263.164C174.964 263.164 201.768 265.8 215.422 271.543C233.707 279.233 246.324 293.401 251.253 299.66C261.545 312.72 277.396 351.413 267.046 357.921C257.68 363.815 243.474 323.447 243.474 323.447C243.474 323.447 264.748 362.213 252.167 367.237C239.586 372.26 225.76 324.458 225.76 324.458C225.76 324.458 246.728 364.779 232.93 367.905C222.506 370.269 207.545 327.681 207.545 327.681C207.545 327.681 225.325 362.466 214.711 365.355C202.981 368.551 186.706 330.107 186.706 330.107C158.483 332.914 143.896 322.704 134.386 314.209C132.088 312.152 174.964 263.164 174.964 263.164Z" fill="white" stroke="black" stroke-width="2.5" stroke-miterlimit="10"/>
<path d="M236.981 309.567C239.644 314.03 242.373 318.529 244.628 323.218C246.887 327.903 248.983 332.669 250.795 337.545C255.239 349.5 256.152 357.68 256.04 357.183C253.404 345.379 245.581 328.482 243.322 323.793C241.067 319.12 239.049 314.33 236.798 309.649C236.744 309.528 236.919 309.462 236.981 309.567Z" fill="black"/>
<path d="M219.913 317.413C223.066 323.26 226.414 328.948 229.31 334.936C232.191 340.896 234.407 346.802 236.872 352.941C237.063 353.415 236.744 353.361 236.534 352.894C233.824 346.856 230.854 341.483 228.078 335.476C225.309 329.492 222.751 323.353 219.765 317.475C219.722 317.385 219.866 317.323 219.913 317.413Z" fill="black"/>
<path d="M204.058 321.514C209.338 330.204 213.008 339.854 216.379 349.41C216.546 349.885 216.146 349.772 215.948 349.298C212.025 339.947 209.015 332.583 203.755 321.701C203.673 321.526 203.946 321.328 204.058 321.514Z" fill="black"/>
<path d="M192.851 264.38L193.23 264.421L142.573 324.029C142.486 324.023 142.389 324.015 142.281 324.007C141.759 323.966 140.992 323.904 140.013 323.818C138.053 323.646 135.243 323.38 131.845 323.001C125.046 322.245 115.902 321.041 106.508 319.253C97.1054 317.463 87.4918 315.096 79.7367 312.023C75.8592 310.486 72.4784 308.786 69.8299 306.914C67.1744 305.037 65.3202 303.034 64.3943 300.916C62.5709 296.743 64.1316 291.921 68.2564 286.827C72.3556 281.765 78.7952 276.696 86.0801 272.22C93.3537 267.75 101.409 263.908 108.685 261.278C116.003 258.632 122.393 257.265 126.391 257.613C134.837 258.349 152.013 260.101 167.086 261.669C174.621 262.453 181.627 263.191 186.749 263.733C189.311 264.004 191.401 264.226 192.851 264.38Z" fill="black" stroke="white" stroke-width="2"/>
<path d="M99.0059 264.754C103.104 261.955 114.748 255.303 126.478 256.617C126.61 256.632 126.614 256.819 126.482 256.823C116.863 257.118 103.302 262.534 99.1108 264.921C98.9981 264.984 98.9048 264.824 99.0059 264.754Z" fill="black"/>
<path d="M131.964 314.446C152.485 292.712 170.754 266.756 174.261 262.46C174.428 262.258 174.078 262.013 173.923 262.227C170.703 266.62 146.606 294.019 131.595 314.189C131.42 314.423 131.77 314.656 131.964 314.446Z" fill="black"/>
<path d="M213.685 161.199C255.62 214.561 271.44 310.422 248.163 317.895C226.896 324.722 139.425 302.833 113.368 293.984C105.717 291.383 129.351 231.882 137.539 234.654C147.434 238.001 201.531 250.82 202.581 250.843C204.828 250.894 192.806 191.875 187.647 165.134C180.462 127.872 197.938 141.157 213.685 161.199Z" fill="white" stroke="black" stroke-width="1.25833" stroke-miterlimit="10"/>
<path d="M67.6148 212.294C63.1864 217.318 66.7711 223.255 66.7711 223.255C66.7711 223.255 61.6041 224.635 58.9719 229.048C55.9588 234.102 62.5605 241.042 62.5605 241.042C62.5605 241.042 57.6189 243.522 55.3095 248.46C52.9106 253.588 58.5715 261.539 58.5715 261.539C58.5715 261.539 55.2395 266.376 56.3048 272.079C58.1244 281.83 72.2259 287.363 81.1565 290.971C90.0832 294.579 118.788 296.453 124.223 297.362L147.877 240.26C147.877 240.26 112.447 212.687 101.347 209.938C91.9922 207.621 72.5836 206.657 67.6148 212.294Z" fill="white" stroke="black" stroke-width="2.5" stroke-miterlimit="10"/>
<path d="M67.5448 222.5C78.0773 222.578 88.0148 225.77 98.1118 228.391C98.3373 228.449 98.2401 228.799 98.0185 228.741C88.007 226.019 77.5796 225.319 67.4826 222.998C67.1988 222.936 67.261 222.5 67.5448 222.5Z" fill="black"/>
<path d="M63.0504 240.369C65.4337 240.459 67.7781 241.334 70.0331 242.041C72.4631 242.803 74.8736 243.608 77.2763 244.448C82.0857 246.131 86.8562 247.924 91.5723 249.856C91.7822 249.941 91.7006 250.284 91.479 250.206C86.6851 248.538 81.8641 246.94 77.0003 245.474C74.5664 244.739 72.1287 244.028 69.6832 243.332C67.4088 242.683 64.9594 242.189 62.8677 241.046C62.5644 240.875 62.6927 240.358 63.0504 240.369Z" fill="black"/>
<path d="M58.7776 261.605C60.8499 261.601 63.066 262.729 64.9828 263.444C67.1561 264.257 69.3372 265.057 71.5223 265.847C75.8884 267.421 80.2584 268.996 84.6751 270.419C84.8967 270.489 84.8034 270.839 84.5818 270.769C80.0835 269.346 75.5696 267.985 71.0829 266.519C68.8785 265.8 66.6818 265.069 64.489 264.327C62.6228 263.697 60.22 263.117 58.6921 261.819C58.6027 261.749 58.6726 261.605 58.7776 261.605Z" fill="black"/>
<path d="M201.799 248.425C202.476 248.021 189.91 191.059 185.695 161.331C181.481 131.608 194.758 134.462 213.859 159.873C234.322 187.093 270.755 260.777 258.135 315.336C254.049 333.003 127.469 308.253 127.469 308.253L144.526 235.502C144.522 235.505 200.749 249.051 201.799 248.425Z" fill="black" stroke="white" stroke-width="2" stroke-miterlimit="10"/>
<path d="M253.376 243.025C232.731 249.082 210.348 246.007 201.212 244.288C199.89 237.138 196.686 221.645 193.42 204.9C215.111 207.302 229.831 204.208 237.871 201.513C243.746 214.211 249.251 228.379 253.376 243.025Z" fill="black" stroke="white" stroke-width="2" stroke-miterlimit="10"/>
<path d="M144.036 300.772C151.734 275.442 155.979 247.652 157.064 242.862C157.115 242.636 156.745 242.578 156.703 242.811C155.882 247.566 147.585 278.798 143.635 300.718C143.593 300.971 143.962 301.017 144.036 300.772Z" fill="black"/>
<path d="M225.593 256.842C223.151 256.423 158.53 238.223 144.397 236.034C144.176 235.999 144.374 235.257 144.607 235.299C188.028 242.959 223.703 254.568 226.437 255.66C229.683 256.947 230.146 257.624 225.593 256.842Z" fill="black"/>
<path d="M201.173 249.005C201.22 248.88 196.912 227.069 196.15 225.708C195.368 224.297 193.673 221.163 192.981 219.701C191.582 216.754 190.369 213.741 189.082 210.755C188.973 210.51 189.346 210.316 189.455 210.565C190.847 213.453 192.488 216.221 194.14 218.955C194.964 220.296 195.784 221.653 196.609 222.983C196.671 223.072 192.631 201.669 192.068 197.913C192.021 197.637 192.324 197.559 192.41 197.793C193.623 201.576 202.095 244.448 203.253 249.195C203.253 249.199 202.452 249.183 201.173 249.005Z" fill="black"/>
<path d="M153.534 312.774C149.316 311.608 132.403 308.875 128.29 308.284C128.694 306.795 129.896 300.741 129.783 299.034C129.771 298.875 129.53 298.778 129.433 298.921C128.473 300.329 126.824 307.774 126.334 309.532C126.241 309.866 149.118 312.739 153.499 312.972C153.624 312.976 153.659 312.809 153.534 312.774Z" fill="black"/>
<path d="M147.873 143.754C147.873 143.754 149.572 160.492 163.448 163.1C177.324 165.705 203.257 147.479 203.257 147.479C203.257 147.479 192.841 133.463 174.027 133.42C155.929 133.373 147.873 143.754 147.873 143.754Z" fill="black" stroke="white" stroke-width="2" stroke-miterlimit="10"/>
<path d="M187.717 139.077C186.974 141.592 173.864 157.439 162.247 156.226C158.464 155.826 159.731 135.08 159.731 135.08L159.475 133.529L155.902 111.791L182.04 97.0519L185.808 95.1196C185.808 95.1196 186.395 101.13 187.048 108.626C187.079 108.972 187.114 109.322 187.141 109.695C187.188 110.119 187.239 110.516 187.266 110.912C187.379 112.032 187.487 113.171 187.573 114.314C187.643 115.181 187.713 116.025 187.752 116.939C187.814 117.856 187.857 118.743 187.919 119.66C188.339 128.688 188.016 138.004 187.717 139.077Z" fill="white"/>
<path d="M187.048 109.241C179.922 125.974 165.878 132.156 159.479 134.147L155.906 112.41L182.044 97.6703L185.812 95.738C185.808 95.7342 186.391 101.745 187.048 109.241Z" fill="white" stroke="black" stroke-width="2.5" stroke-miterlimit="10"/>
<path d="M130.778 71.2092C120.607 108.514 141.8 118.817 149.845 121.002C157.15 122.985 182.274 128.809 196.243 92.7561C210.216 56.7033 196.088 40.1835 179.622 34.7637C163.161 29.3439 140.953 33.9045 130.778 71.2092Z" fill="white" stroke="black" stroke-width="2.5" stroke-miterlimit="10"/>
<path d="M144.215 63.9113C145.121 64.0202 145.976 63.9697 146.886 63.9852C147.908 64.0047 148.725 64.1213 149.623 63.542C150.105 63.231 150.272 62.4067 150.015 61.9091C149.413 60.7543 148.165 60.42 146.932 60.3461C145.595 60.2684 144.545 60.5522 143.46 61.3336C142.403 62.0957 143.017 63.7675 144.215 63.9113Z" fill="black"/>
<path d="M170.8 67.6362C169.937 67.3368 169.191 66.9131 168.37 66.5282C167.441 66.0927 166.66 65.8439 166.108 64.9263C165.812 64.4364 166.026 63.62 166.473 63.2895C167.519 62.5158 168.79 62.7646 169.93 63.2428C171.166 63.7599 171.986 64.4753 172.616 65.6573C173.223 66.8003 171.936 68.0289 170.8 67.6362Z" fill="black"/>
<path d="M162.274 79.5604C162.317 79.4671 162.445 79.7315 162.414 79.8364C161.703 82.3714 161.31 85.3962 163.413 86.8153C163.479 86.858 163.44 86.9863 163.355 86.9513C160.633 85.8588 161.193 81.8465 162.274 79.5604Z" fill="black"/>
<path d="M165.217 77.457C169.405 78.1607 167.686 86.4848 163.81 85.8316C159.988 85.1901 161.706 76.8661 165.217 77.457Z" fill="black"/>
<path d="M166.761 78.2346C167.391 78.8567 167.931 79.8326 168.79 80.1009C169.786 80.4119 170.73 79.6965 171.566 78.9967C171.652 78.9228 171.71 79.0122 171.687 79.1211C171.38 80.719 170.431 82.2314 168.674 82.1148C167.068 82.0098 166.24 80.3652 166.174 78.6818C166.158 78.3668 166.508 77.9819 166.761 78.2346Z" fill="black"/>
<path d="M146.917 74.475C146.917 74.3739 146.687 74.5527 146.668 74.6616C146.194 77.251 145.214 80.1397 142.702 80.4896C142.624 80.5013 142.605 80.6296 142.694 80.6373C145.618 80.8512 146.882 77.006 146.917 74.475Z" fill="black"/>
<path d="M145.198 71.2908C141.128 70.0817 139.009 78.3125 142.784 79.4322C146.493 80.5364 148.612 72.3056 145.198 71.2908Z" fill="black"/>
<path d="M143.344 71.3919C142.582 71.6602 141.734 72.2861 140.945 72.1384C140.028 71.9673 139.592 70.9059 139.238 69.9028C139.203 69.7978 139.118 69.8523 139.087 69.9611C138.64 71.5241 138.737 73.297 140.171 73.9852C141.478 74.615 142.839 73.5264 143.616 72.0567C143.756 71.7846 143.651 71.283 143.344 71.3919Z" fill="black"/>
<path d="M155.684 99.0621C154.965 99.5715 154.211 100.31 153.254 100.24C152.337 100.17 151.341 99.5948 150.564 99.1399C150.486 99.0932 150.389 99.171 150.432 99.2565C150.949 100.361 152.267 101.212 153.507 101.193C154.716 101.173 155.463 100.252 155.917 99.2215C155.98 99.0777 155.789 98.9883 155.684 99.0621Z" fill="black"/>
<path d="M146.964 87.414C146.964 87.414 145.595 91.1386 145.195 92.9504C145.16 93.1214 145.58 93.2964 146.186 93.4675C146.213 93.483 146.229 93.4986 146.256 93.4869C149.347 94.6844 152.811 94.2839 155.327 92.0989C155.49 91.9473 155.299 91.7101 155.113 91.7879C152.341 93.0204 149.604 92.8959 146.754 92.3205C146.734 91.7918 149.316 86.0182 149.032 85.9365C148.06 85.6333 145.961 85.8821 144.712 85.9676C147.341 78.1257 151.209 70.7697 153.709 62.92C153.795 62.64 153.402 62.4612 153.262 62.6984C148.667 70.1243 145.44 79.0821 142.516 87.1107C142.143 88.1099 146.17 87.5656 146.964 87.414Z" fill="black"/>
<path d="M146.905 92.896C146.905 92.896 147.998 95.6564 150.113 97.1105C150.89 97.6509 151.789 98.0203 152.827 98.0203C154.965 98.028 155.501 96.2085 155.556 94.5445C155.603 93.1759 155.303 91.9045 155.303 91.9045C155.303 91.9045 151.66 93.8563 146.905 92.896Z" fill="black"/>
<path d="M150.113 97.1108C150.89 97.6512 151.789 98.0206 152.827 98.0206C154.965 98.0283 155.501 96.2088 155.556 94.5448M150.113 97.1108L150.583 97.2818C150.628 97.1571 150.681 97.037 150.742 96.9215M150.113 97.1108L150.398 96.7002C150.511 96.7785 150.626 96.8525 150.742 96.9215M150.113 97.1108C150.852 95.0813 153.359 94.191 155.556 94.5448M150.742 96.9215C151.369 97.2914 152.058 97.5206 152.827 97.5206H152.828V97.5206C153.724 97.5238 154.23 97.1608 154.547 96.6471C154.822 96.2015 154.968 95.6156 155.028 94.9853M150.742 96.9215C151.101 96.2432 151.719 95.7265 152.487 95.3926C153.256 95.0584 154.154 94.9183 155.028 94.9853M155.028 94.9853C155.178 94.9968 155.328 95.0145 155.476 95.0384L155.556 94.5448M155.028 94.9853C155.042 94.8351 155.051 94.6824 155.056 94.5284L155.556 94.5448" fill="white" stroke="black"/>
<path d="M194.163 92.1301C190.186 90.7304 182.841 76.5745 188.121 56.9404C188.121 56.9404 184.599 74.8988 185.178 77.8497C185.761 80.7968 181.084 69.895 185.12 54.0011C185.12 54.0011 174.583 57.7996 166.543 57.7491C158.503 57.7024 153.97 56.3261 153.592 55.6341C153.215 54.942 165.155 54.6349 169.098 52.0688C169.098 52.0688 146.664 55.5952 137.337 53.6745C136.256 53.4529 141.225 31.385 157.97 26.2179C174.72 21.0509 194.214 37.4074 198.556 44.9345C198.556 44.9345 205.325 47.9632 210.003 60.5951C214.687 73.227 198.448 93.6386 194.163 92.1301Z" fill="black"/>
<path d="M188.39 92.9504C188.39 92.9504 198.848 82.5851 203.7 86.5236C208.548 90.4621 199.182 106.543 192.425 107.748C185.672 108.953 184.432 102.725 184.432 102.725L188.39 92.9504Z" fill="white" stroke="black" stroke-width="2.5" stroke-miterlimit="10"/>
<path d="M200.901 91.0648C201.006 91.0726 200.998 91.2204 200.905 91.2398C196.142 92.2312 193.063 95.9209 190.652 99.8866C192.27 98.4869 194.229 97.9115 196.142 99.8827C196.243 99.9877 196.099 100.147 195.979 100.097C194.233 99.3772 192.865 99.455 191.372 100.687C190.314 101.558 189.486 102.756 188.646 103.833C188.366 104.191 187.69 103.848 187.923 103.421C187.939 103.39 187.962 103.358 187.978 103.323C188.891 97.6471 194.723 90.5322 200.901 91.0648Z" fill="black"/>
</svg>
